<?xml version="1.0" encoding="iso-8859-1"?>
<!-- Generator: Adobe Illustrator 19.0.0, SVG Export Plug-In . SVG Version: 6.00 Build 0)  -->
<svg version="1.1" id="Capa_1" xmlns="http://www.w3.org/2000/svg" xmlns:xlink="http://www.w3.org/1999/xlink" x="0px" y="0px"
	 viewBox="0 0 512.001 512.001" style="enable-background:new 0 0 512.001 512.001;" xml:space="preserve">
<g>
	<path style="fill:#F48976;" d="M504.397,172.415H372.598v-66.926h64.873C474.433,105.489,504.397,135.453,504.397,172.415
		L504.397,172.415z"/>
	<path style="fill:#F48976;" d="M284.007,504.328H168.488c-11.447,0-20.673-9.48-20.267-21.017
		c0.395-10.98,9.753-19.537,20.754-19.537h13.981v-46.81h40.554v46.81h19.943c11.193,0,21.332,4.542,28.672,11.882
		C279.465,482.986,284.007,493.124,284.007,504.328z"/>
</g>
<rect x="182.952" y="416.961" style="fill:#F26876;" width="40.554" height="34.208"/>
<path style="fill:#FFFFFF;" d="M301.049,7.674L301.049,7.674c-54.022,0-97.815,43.793-97.815,97.814v118.408H7.605l0,0
	c0,108.043,87.586,195.63,195.63,195.63l0,0l0,0c108.043,0,195.63-87.586,195.63-195.63l0,0V105.489
	C398.864,51.467,355.07,7.674,301.049,7.674z"/>
<g>
	<path style="fill:#C9E4FF;" d="M222.533,418.585c-6.347,0.629-12.785,0.943-19.304,0.943c-54.019,0-102.927-21.899-138.321-57.303
		C29.504,326.831,7.605,277.922,7.605,223.894h38.598c0,54.029,21.889,102.937,57.293,138.331
		C134.632,393.361,176.22,414.053,222.533,418.585z"/>
	<path style="fill:#C9E4FF;" d="M318.795,9.29c-45.553,8.334-80.075,48.24-80.075,96.195v118.409h-35.485V105.485
		c0-54.019,43.799-97.807,97.817-97.807C307.115,7.677,313.036,8.225,318.795,9.29z"/>
</g>
<path style="fill:#605D9C;" d="M47.502,223.896c0,65.031,52.718,117.748,117.748,117.748s117.748-52.718,117.748-117.748
	L47.502,223.896L47.502,223.896z"/>
<path style="fill:#393B85;" d="M185.874,339.841c-6.702,1.186-13.586,1.805-20.622,1.805c-65.029,0-117.75-52.721-117.75-117.75
	h41.254C88.756,281.888,130.68,330.098,185.874,339.841z"/>
<path d="M203.235,206.323c4.199,0,7.604-3.405,7.604-7.604v-93.23c0-27.163,12.069-52.62,33.114-69.846
	c3.249-2.66,3.728-7.451,1.068-10.7s-7.451-3.728-10.7-1.068c-24.587,20.125-38.689,49.873-38.689,81.615v93.23
	C195.631,202.919,199.035,206.323,203.235,206.323z"/>
<path d="M279.248,412.435c3.612-1.458,5.794-5.342,4.781-9.103c-1.213-4.505-6.025-6.802-10.211-5.105
	c-22.423,9.088-46.17,13.696-70.585,13.696c-101.134,0-183.874-80.251-187.874-180.422h9.99c4.199,0,7.604-3.405,7.604-7.604l0,0
	c0-4.199-3.405-7.604-7.604-7.604H7.604c-4.209,0-7.605,3.444-7.604,7.653C0.027,335.986,91.187,427.13,203.235,427.13
	C229.513,427.13,255.087,422.187,279.248,412.435z"/>
<path d="M437.471,97.885h-31.28C402.281,43.293,356.62,0.07,301.049,0.07c-16.651,0-32.583,3.772-47.355,11.211
	c-3.75,1.889-5.26,6.46-3.371,10.212c1.89,3.751,6.463,5.26,10.212,3.371c12.631-6.361,26.262-9.586,40.515-9.586
	c49.743,0,90.211,40.468,90.211,90.21v66.926v51.482c0,68.034-36.923,130.954-96.359,164.208c-3.665,2.05-4.974,6.683-2.923,10.349
	c1.394,2.49,3.978,3.893,6.643,3.893c1.256,0,2.532-0.312,3.706-0.969c64.236-35.939,104.142-103.946,104.142-177.48v-43.878h97.929
	c4.199,0,7.604-3.405,7.604-7.604C512.001,131.319,478.567,97.885,437.471,97.885z M406.468,164.811v-51.718h31.003
	c30.135,0,55.093,22.585,58.837,51.718H406.468z"/>
<path d="M165.251,349.248c7.34,0,14.534-0.641,21.531-1.856c0.241-0.028,0.479-0.07,0.714-0.121
	c58.545-10.528,103.108-61.845,103.108-123.375c0-2.363-1.079-4.475-2.77-5.869c-1.315-1.085-3-1.737-4.837-1.737l-235.494,0.003
	c-4.199,0-7.604,3.405-7.604,7.604C39.899,293.016,96.131,349.248,165.251,349.248z M185.885,332.096
	c-49.451-9.351-85.874-50.825-89.262-100.596h178.514C271.694,281.77,234.368,322.871,185.885,332.096z M81.39,231.5
	c2.525,42.215,25.922,79.309,60.835,100.113C94.911,321.51,58.75,280.939,55.366,231.5H81.39z"/>
<path d="M243.452,456.168h-12.339v-13.857c0-4.199-3.405-7.604-7.604-7.604c-4.199,0-7.604,3.405-7.604,7.604v21.461
	c0,4.199,3.405,7.604,7.604,7.604h19.943c8.796,0,17.068,3.429,23.299,9.659c4.39,4.384,7.389,9.792,8.775,15.687H168.488
	c-3.47,0-6.709-1.375-9.12-3.872c-2.41-2.497-3.671-5.79-3.549-9.268c0.242-6.731,6.144-12.207,13.155-12.207h13.981
	c4.199,0,7.604-3.405,7.604-7.604v-21.461c0-4.199-3.405-7.604-7.604-7.604c-4.199,0-7.604,3.405-7.604,7.604v13.857h-6.377
	c-15.356,0-27.81,11.801-28.354,26.874c-0.269,7.645,2.504,14.879,7.807,20.371c5.302,5.492,12.427,8.516,20.06,8.516h115.519
	c4.199,0,7.604-3.405,7.604-7.604c0-12.871-5.013-24.964-14.11-34.049C268.403,461.179,256.311,456.168,243.452,456.168z"/>
<path d="M356.065,138.952V114.43c0-4.199-3.405-7.604-7.604-7.604s-7.604,3.405-7.604,7.604v24.522c0,4.199,3.405,7.604,7.604,7.604
	S356.065,143.152,356.065,138.952z"/>
<g>
</g>
<g>
</g>
<g>
</g>
<g>
</g>
<g>
</g>
<g>
</g>
<g>
</g>
<g>
</g>
<g>
</g>
<g>
</g>
<g>
</g>
<g>
</g>
<g>
</g>
<g>
</g>
<g>
</g>
</svg>
